<mxfile host="app.diagrams.net" agent="Mozilla/5.0 (Windows NT 10.0; Win64; x64) AppleWebKit/537.36 (KHTML, like Gecko) Chrome/131.0.0.0 Safari/537.36" version="25.0.3">
  <diagram id="C5RBs43oDa-KdzZeNtuy" name="Page-1">
    <mxGraphModel dx="1290" dy="572" grid="1" gridSize="10" guides="1" tooltips="1" connect="1" arrows="1" fold="1" page="1" pageScale="1" pageWidth="827" pageHeight="1169" math="0" shadow="0">
      <root>
        <mxCell id="WIyWlLk6GJQsqaUBKTNV-0" />
        <mxCell id="WIyWlLk6GJQsqaUBKTNV-1" parent="WIyWlLk6GJQsqaUBKTNV-0" />
        <mxCell id="Df5z-qPzcysqA4YyzWi7-2" style="edgeStyle=none;curved=1;rounded=0;orthogonalLoop=1;jettySize=auto;html=1;entryX=0.5;entryY=0;entryDx=0;entryDy=0;fontSize=12;startSize=8;endSize=8;" edge="1" parent="WIyWlLk6GJQsqaUBKTNV-1" source="Df5z-qPzcysqA4YyzWi7-0" target="Df5z-qPzcysqA4YyzWi7-1">
          <mxGeometry relative="1" as="geometry" />
        </mxCell>
        <mxCell id="Df5z-qPzcysqA4YyzWi7-0" value="Start" style="ellipse;whiteSpace=wrap;html=1;" vertex="1" parent="WIyWlLk6GJQsqaUBKTNV-1">
          <mxGeometry x="300" y="10" width="120" height="80" as="geometry" />
        </mxCell>
        <mxCell id="Df5z-qPzcysqA4YyzWi7-12" style="edgeStyle=none;curved=1;rounded=0;orthogonalLoop=1;jettySize=auto;html=1;entryX=0;entryY=0.5;entryDx=0;entryDy=0;fontSize=12;startSize=8;endSize=8;" edge="1" parent="WIyWlLk6GJQsqaUBKTNV-1" source="Df5z-qPzcysqA4YyzWi7-1" target="Df5z-qPzcysqA4YyzWi7-3">
          <mxGeometry relative="1" as="geometry" />
        </mxCell>
        <mxCell id="Df5z-qPzcysqA4YyzWi7-1" value="Nhap n" style="shape=parallelogram;perimeter=parallelogramPerimeter;whiteSpace=wrap;html=1;fixedSize=1;" vertex="1" parent="WIyWlLk6GJQsqaUBKTNV-1">
          <mxGeometry x="300" y="140" width="120" height="60" as="geometry" />
        </mxCell>
        <mxCell id="Df5z-qPzcysqA4YyzWi7-3" value="n == 2 or n==1" style="rhombus;whiteSpace=wrap;html=1;" vertex="1" parent="WIyWlLk6GJQsqaUBKTNV-1">
          <mxGeometry x="470" y="110" width="180" height="120" as="geometry" />
        </mxCell>
        <mxCell id="Df5z-qPzcysqA4YyzWi7-5" value="la so nguyen to" style="strokeWidth=2;html=1;shape=mxgraph.flowchart.display;whiteSpace=wrap;" vertex="1" parent="WIyWlLk6GJQsqaUBKTNV-1">
          <mxGeometry x="690" y="140" width="100" height="60" as="geometry" />
        </mxCell>
        <mxCell id="Df5z-qPzcysqA4YyzWi7-6" value="Yes" style="edgeStyle=none;curved=1;rounded=0;orthogonalLoop=1;jettySize=auto;html=1;entryX=0;entryY=0.5;entryDx=0;entryDy=0;entryPerimeter=0;fontSize=12;startSize=8;endSize=8;" edge="1" parent="WIyWlLk6GJQsqaUBKTNV-1" source="Df5z-qPzcysqA4YyzWi7-3" target="Df5z-qPzcysqA4YyzWi7-5">
          <mxGeometry relative="1" as="geometry" />
        </mxCell>
        <mxCell id="Df5z-qPzcysqA4YyzWi7-8" style="edgeStyle=none;curved=1;rounded=0;orthogonalLoop=1;jettySize=auto;html=1;entryX=0.5;entryY=0;entryDx=0;entryDy=0;entryPerimeter=0;fontSize=12;startSize=8;endSize=8;" edge="1" parent="WIyWlLk6GJQsqaUBKTNV-1" source="Df5z-qPzcysqA4YyzWi7-1">
          <mxGeometry relative="1" as="geometry">
            <mxPoint x="360" y="280" as="targetPoint" />
          </mxGeometry>
        </mxCell>
        <mxCell id="Df5z-qPzcysqA4YyzWi7-9" value="bắt đầu vòng lặp i từ 2 đến căn bậc 2 của n" style="rounded=1;whiteSpace=wrap;html=1;absoluteArcSize=1;arcSize=14;strokeWidth=2;" vertex="1" parent="WIyWlLk6GJQsqaUBKTNV-1">
          <mxGeometry x="235" y="280" width="250" height="100" as="geometry" />
        </mxCell>
        <mxCell id="Df5z-qPzcysqA4YyzWi7-10" value="kiểm tra n%i==0?" style="strokeWidth=2;html=1;shape=mxgraph.flowchart.decision;whiteSpace=wrap;" vertex="1" parent="WIyWlLk6GJQsqaUBKTNV-1">
          <mxGeometry x="290" y="450" width="140" height="100" as="geometry" />
        </mxCell>
        <mxCell id="Df5z-qPzcysqA4YyzWi7-11" style="edgeStyle=none;curved=1;rounded=0;orthogonalLoop=1;jettySize=auto;html=1;entryX=0.5;entryY=0;entryDx=0;entryDy=0;entryPerimeter=0;fontSize=12;startSize=8;endSize=8;" edge="1" parent="WIyWlLk6GJQsqaUBKTNV-1" source="Df5z-qPzcysqA4YyzWi7-9" target="Df5z-qPzcysqA4YyzWi7-10">
          <mxGeometry relative="1" as="geometry" />
        </mxCell>
        <mxCell id="Df5z-qPzcysqA4YyzWi7-13" value="khong la so nguyen to" style="strokeWidth=2;html=1;shape=mxgraph.flowchart.display;whiteSpace=wrap;" vertex="1" parent="WIyWlLk6GJQsqaUBKTNV-1">
          <mxGeometry x="510" y="470" width="100" height="60" as="geometry" />
        </mxCell>
        <mxCell id="Df5z-qPzcysqA4YyzWi7-14" value="Yes" style="edgeStyle=none;curved=1;rounded=0;orthogonalLoop=1;jettySize=auto;html=1;entryX=0;entryY=0.5;entryDx=0;entryDy=0;entryPerimeter=0;fontSize=12;startSize=8;endSize=8;" edge="1" parent="WIyWlLk6GJQsqaUBKTNV-1" source="Df5z-qPzcysqA4YyzWi7-10" target="Df5z-qPzcysqA4YyzWi7-13">
          <mxGeometry relative="1" as="geometry" />
        </mxCell>
        <mxCell id="Df5z-qPzcysqA4YyzWi7-23" style="edgeStyle=none;curved=1;rounded=0;orthogonalLoop=1;jettySize=auto;html=1;fontSize=12;startSize=8;endSize=8;" edge="1" parent="WIyWlLk6GJQsqaUBKTNV-1" source="Df5z-qPzcysqA4YyzWi7-15">
          <mxGeometry relative="1" as="geometry">
            <mxPoint x="700" y="540" as="targetPoint" />
          </mxGeometry>
        </mxCell>
        <mxCell id="Df5z-qPzcysqA4YyzWi7-15" value="la so nguyen to" style="strokeWidth=2;html=1;shape=mxgraph.flowchart.display;whiteSpace=wrap;" vertex="1" parent="WIyWlLk6GJQsqaUBKTNV-1">
          <mxGeometry x="510" y="560" width="100" height="60" as="geometry" />
        </mxCell>
        <mxCell id="Df5z-qPzcysqA4YyzWi7-20" value="No" style="edgeStyle=none;curved=1;rounded=0;orthogonalLoop=1;jettySize=auto;html=1;entryX=0;entryY=0.5;entryDx=0;entryDy=0;entryPerimeter=0;fontSize=12;startSize=8;endSize=8;exitX=0.5;exitY=1;exitDx=0;exitDy=0;exitPerimeter=0;" edge="1" parent="WIyWlLk6GJQsqaUBKTNV-1" source="Df5z-qPzcysqA4YyzWi7-10" target="Df5z-qPzcysqA4YyzWi7-15">
          <mxGeometry relative="1" as="geometry">
            <Array as="points">
              <mxPoint x="420" y="560" />
            </Array>
          </mxGeometry>
        </mxCell>
        <mxCell id="Df5z-qPzcysqA4YyzWi7-21" value="End" style="strokeWidth=2;html=1;shape=mxgraph.flowchart.start_1;whiteSpace=wrap;" vertex="1" parent="WIyWlLk6GJQsqaUBKTNV-1">
          <mxGeometry x="700" y="510" width="100" height="60" as="geometry" />
        </mxCell>
        <mxCell id="Df5z-qPzcysqA4YyzWi7-22" style="edgeStyle=none;curved=1;rounded=0;orthogonalLoop=1;jettySize=auto;html=1;entryX=0;entryY=0.5;entryDx=0;entryDy=0;entryPerimeter=0;fontSize=12;startSize=8;endSize=8;" edge="1" parent="WIyWlLk6GJQsqaUBKTNV-1" source="Df5z-qPzcysqA4YyzWi7-13" target="Df5z-qPzcysqA4YyzWi7-21">
          <mxGeometry relative="1" as="geometry" />
        </mxCell>
        <mxCell id="Df5z-qPzcysqA4YyzWi7-24" style="edgeStyle=none;curved=1;rounded=0;orthogonalLoop=1;jettySize=auto;html=1;entryX=0.42;entryY=0.07;entryDx=0;entryDy=0;entryPerimeter=0;fontSize=12;startSize=8;endSize=8;" edge="1" parent="WIyWlLk6GJQsqaUBKTNV-1" source="Df5z-qPzcysqA4YyzWi7-5" target="Df5z-qPzcysqA4YyzWi7-21">
          <mxGeometry relative="1" as="geometry" />
        </mxCell>
        <mxCell id="Df5z-qPzcysqA4YyzWi7-25" value="n &amp;lt; 1" style="strokeWidth=2;html=1;shape=mxgraph.flowchart.decision;whiteSpace=wrap;" vertex="1" parent="WIyWlLk6GJQsqaUBKTNV-1">
          <mxGeometry x="550" y="250" width="100" height="100" as="geometry" />
        </mxCell>
        <mxCell id="Df5z-qPzcysqA4YyzWi7-26" value="khong la so nguyen to" style="strokeWidth=2;html=1;shape=mxgraph.flowchart.display;whiteSpace=wrap;" vertex="1" parent="WIyWlLk6GJQsqaUBKTNV-1">
          <mxGeometry x="610" y="370" width="100" height="60" as="geometry" />
        </mxCell>
        <mxCell id="Df5z-qPzcysqA4YyzWi7-27" value="yes" style="edgeStyle=none;curved=1;rounded=0;orthogonalLoop=1;jettySize=auto;html=1;entryX=0.5;entryY=0;entryDx=0;entryDy=0;entryPerimeter=0;fontSize=12;startSize=8;endSize=8;exitX=1;exitY=0.5;exitDx=0;exitDy=0;exitPerimeter=0;" edge="1" parent="WIyWlLk6GJQsqaUBKTNV-1" source="Df5z-qPzcysqA4YyzWi7-25" target="Df5z-qPzcysqA4YyzWi7-26">
          <mxGeometry relative="1" as="geometry" />
        </mxCell>
        <mxCell id="Df5z-qPzcysqA4YyzWi7-28" style="edgeStyle=none;curved=1;rounded=0;orthogonalLoop=1;jettySize=auto;html=1;entryX=0.096;entryY=0.554;entryDx=0;entryDy=0;entryPerimeter=0;fontSize=12;startSize=8;endSize=8;" edge="1" parent="WIyWlLk6GJQsqaUBKTNV-1" source="Df5z-qPzcysqA4YyzWi7-1" target="Df5z-qPzcysqA4YyzWi7-25">
          <mxGeometry relative="1" as="geometry" />
        </mxCell>
        <mxCell id="Df5z-qPzcysqA4YyzWi7-29" style="edgeStyle=none;curved=1;rounded=0;orthogonalLoop=1;jettySize=auto;html=1;entryX=0.5;entryY=0;entryDx=0;entryDy=0;entryPerimeter=0;fontSize=12;startSize=8;endSize=8;" edge="1" parent="WIyWlLk6GJQsqaUBKTNV-1" source="Df5z-qPzcysqA4YyzWi7-26" target="Df5z-qPzcysqA4YyzWi7-21">
          <mxGeometry relative="1" as="geometry" />
        </mxCell>
      </root>
    </mxGraphModel>
  </diagram>
</mxfile>
